<?xml version="1.0" encoding="utf-8"?>
<!-- Generator: Adobe Illustrator 24.3.2, SVG Export Plug-In . SVG Version: 6.00 Build 0)  -->
<svg version="1.1" id="Vrstva_1" xmlns="http://www.w3.org/2000/svg" xmlns:xlink="http://www.w3.org/1999/xlink" x="0px" y="0px"
	 viewBox="0 0 90 26" style="enable-background:new 0 0 90 26;" xml:space="preserve">
<style type="text/css">
	.st0{fill:#191C34;}
</style>
<path class="st0" d="M5.7,12.9L5.7,12.9c0-2.7,2-4.8,4.8-4.8c1.9,0,3.1,0.8,3.9,1.9l-1.9,1.5c-0.5-0.7-1.1-1.1-2-1.1
	c-1.3,0-2.2,1.1-2.2,2.4v0c0,1.4,0.9,2.4,2.2,2.4c0.9,0,1.5-0.4,2.1-1.1l1.9,1.4c-0.9,1.2-2,2.1-4,2.1C7.8,17.6,5.7,15.6,5.7,12.9z"
	/>
<path class="st0" d="M15.5,14L15.5,14c0-2,1.4-3.6,3.4-3.6c2.2,0,3.3,1.7,3.3,3.7c0,0.1,0,0.3,0,0.4h-5c0.2,1.1,1,1.7,2,1.7
	c0.8,0,1.3-0.3,1.9-0.8l0.9,0.8c-0.7,0.8-1.5,1.3-2.8,1.3C17,17.6,15.5,16.2,15.5,14z M20.6,13.5c-0.1-1-0.7-1.8-1.7-1.8
	c-1,0-1.6,0.7-1.8,1.8H20.6z"/>
<path class="st0" d="M25.2,14l-2.4-3.4h1.7l1.6,2.3l1.6-2.3h1.7L27,13.9l2.5,3.5h-1.7L26.1,15l-1.7,2.4h-1.7L25.2,14z"/>
<path class="st0" d="M30.9,10.6h1.6v1.1c0.5-0.7,1.2-1.3,2.3-1.3c1.6,0,3.2,1.3,3.2,3.6v0c0,2.3-1.6,3.6-3.2,3.6
	c-1.1,0-1.8-0.6-2.3-1.2v3.1h-1.6V10.6z M36.4,14L36.4,14c0-1.4-0.9-2.2-2-2.2c-1.1,0-2,0.9-2,2.2v0c0,1.3,0.9,2.2,2,2.2
	C35.5,16.2,36.4,15.4,36.4,14z"/>
<path class="st0" d="M39.7,8h1.6v9.5h-1.6V8z"/>
<path class="st0" d="M42.9,14.1L42.9,14.1c0-2,1.6-3.6,3.7-3.6s3.7,1.6,3.7,3.6v0c0,2-1.6,3.6-3.7,3.6C44.5,17.6,42.9,16,42.9,14.1z
	 M48.7,14.1L48.7,14.1c0-1.2-0.9-2.2-2.1-2.2c-1.3,0-2.1,1-2.1,2.2v0c0,1.2,0.9,2.2,2.1,2.2C47.9,16.2,48.7,15.2,48.7,14.1z"/>
<path class="st0" d="M51.8,10.6h1.6v1.5c0.4-1,1.2-1.7,2.4-1.7v1.7h-0.1c-1.4,0-2.3,0.9-2.3,2.7v2.6h-1.6V10.6z"/>
<path class="st0" d="M56.6,14L56.6,14c0-2,1.4-3.6,3.4-3.6c2.2,0,3.3,1.7,3.3,3.7c0,0.1,0,0.3,0,0.4h-5c0.2,1.1,1,1.7,2,1.7
	c0.8,0,1.3-0.3,1.9-0.8l0.9,0.8c-0.7,0.8-1.5,1.3-2.8,1.3C58.1,17.6,56.6,16.2,56.6,14z M61.7,13.5c-0.1-1-0.7-1.8-1.7-1.8
	c-1,0-1.6,0.7-1.8,1.8H61.7z"/>
<path class="st0" d="M64.8,10.6h1.6v1.5c0.4-1,1.2-1.7,2.4-1.7v1.7h-0.1c-1.4,0-2.3,0.9-2.3,2.7v2.6h-1.6V10.6z"/>
<path class="st0" d="M68.9,15.7h1.7v1.8h-1.7V15.7z"/>
<path class="st0" d="M72.5,8h1.7v1.5h-1.7V8z M72.6,10.6h1.6v6.9h-1.6V10.6z"/>
<path class="st0" d="M75.9,14.1L75.9,14.1c0-2,1.6-3.6,3.7-3.6c2.1,0,3.7,1.6,3.7,3.6v0c0,2-1.6,3.6-3.7,3.6
	C77.4,17.6,75.9,16,75.9,14.1z M81.6,14.1L81.6,14.1c0-1.2-0.9-2.2-2.1-2.2c-1.3,0-2.1,1-2.1,2.2v0c0,1.2,0.9,2.2,2.1,2.2
	C80.8,16.2,81.6,15.2,81.6,14.1z"/>
</svg>